<?xml version="1.0" standalone="no"?><!DOCTYPE svg PUBLIC "-//W3C//DTD SVG 1.1//EN" "http://www.w3.org/Graphics/SVG/1.1/DTD/svg11.dtd"><svg class="icon" width="200px" height="200.00px" viewBox="0 0 1024 1024" version="1.1" xmlns="http://www.w3.org/2000/svg"><path fill="#333" d="M511.497557 148.266835c-21.399379 0-40.873919 11.773138-50.004881 30.222325l-86.547145 175.736467-199.088314 28.965705c-20.455891 2.943029-37.470403 16.658402-44.043099 35.298947-6.566556 18.73469-1.611707 39.369659 12.846586 53.43398l145.896858 142.523017-33.833573 197.61066c-3.442402 19.944238 5.371334 39.891546 22.660092 51.573609 9.522887 6.337335 20.657482 9.600659 31.826869 9.600659 9.165754 0 18.391882-2.203178 26.753317-6.531763l173.551708-91.428316 173.593663 91.428316c8.339946 4.328585 17.545608 6.531763 26.692942 6.531763 11.1919 0 22.326495-3.267417 31.843242-9.600659 17.292851-11.682064 26.086122-31.629371 22.664186-51.573609l-33.833573-197.61066 145.914254-142.523017c14.436804-14.0766 19.413142-34.69929 12.825097-53.43398-6.589069-18.640546-23.603581-32.355919-44.059472-35.298947l-199.088314-28.965705-86.551238-175.736467C552.450271 160.039973 532.936845 148.266835 511.497557 148.266835L511.497557 148.266835 511.497557 148.266835zM511.497557 148.266835"  /></svg>