<?xml version="1.0" standalone="no"?><!DOCTYPE svg PUBLIC "-//W3C//DTD SVG 1.1//EN" "http://www.w3.org/Graphics/SVG/1.1/DTD/svg11.dtd"><svg class="icon" width="200px" height="200.00px" viewBox="0 0 1024 1024" version="1.1" xmlns="http://www.w3.org/2000/svg"><path fill="#333" d="M924.611765 257.214745c0 171.128471 0 342.256941 0 513.385412-0.291137 1.556078-0.652549 3.092078-0.863373 4.658196-2.288941 17.287529-9.015216 32.627451-20.570353 45.688471-17.990275 20.339451-40.859608 29.756235-67.84502 29.746196-148.379608-0.010039-296.759216-0.010039-445.138824-0.010039-66.168471 0-132.336941 0.040157-198.505412-0.020078-39.213176-0.030118-70.987294-22.347294-83.757176-59.090824-2.339137-6.726275-3.182431-13.974588-4.718431-20.981961 0-171.128471 0-342.256941 0-513.385412 0.291137-1.546039 0.652549-3.082039 0.863373-4.638118 2.288941-17.287529 9.015216-32.627451 20.560314-45.688471 17.990275-20.339451 40.859608-29.766275 67.84502-29.766275 151.060078 0.010039 302.120157 0.010039 453.180235 0.010039 63.498039 0 126.996078-0.040157 190.494118 0.020078 39.203137 0.040157 70.987294 22.367373 83.757176 59.110902C922.232471 242.979137 923.075765 250.217412 924.611765 257.214745zM881.423059 699.663059c0-11.414588 0-21.684706 0-31.964863 0-134.083765-0.180706-268.167529 0.160627-402.261333 0.060235-25.429333-20.22902-45.296941-44.021961-45.286902-215.762824 0.120471-431.535686 0.070275-647.29851 0.120471-3.573961 0-7.238275 0.361412-10.701804 1.204706-19.937882 4.818824-33.119373 21.955765-33.129412 43.168627-0.040157 83.556392-0.020078 167.102745-0.010039 250.659137 0 1.134431 0.140549 2.258824 0.25098 3.895216 1.15451-0.823216 1.907451-1.315137 2.610196-1.867294 14.817882-11.64549 29.625725-23.29098 44.433569-34.94651 32.135529-25.288784 64.271059-50.597647 96.426667-75.866353 10.039216-7.890824 21.925647-6.826667 30.448941 2.56 1.435608 1.576157 2.981647 3.061961 4.527686 4.537725 66.449569 63.598431 132.899137 127.186824 199.348706 190.765176 0.853333 0.813176 1.756863 1.566118 2.981647 2.660392 1.254902-1.40549 2.369255-2.730667 3.573961-3.985569 34.755765-36.311843 69.662118-72.483137 104.18698-109.015843 6.856784-7.248314 21.323294-9.266196 30.368627 0.421647 1.546039 1.656471 3.102118 3.32298 4.748549 4.889098 65.927529 62.584471 131.865098 125.168941 197.802667 187.743373C872.257255 691.039373 876.423529 694.954667 881.423059 699.663059z"  /></svg>